<svg xmlns="http://www.w3.org/2000/svg" viewBox="0 0 720 430"><rect width="720" height="430" fill="#181b1c"></rect><circle cx="590" cy="92" r="58" fill="#f28c28"></circle><path d="M0 300 C150 230 245 285 390 220 C530 157 622 188 720 134 L720 430 L0 430Z" fill="#0f1112"></path><rect x="120" y="202" width="390" height="142" rx="18" fill="#eee5d7"></rect><path d="M88 212 L306 92 L555 212 Z" fill="#2c3032"></path><polygon points="220,180 358,118 468,178 330,238" fill="#111"></polygon><g stroke="#f28c28" stroke-width="5"><path d="M250 180 362 225"></path><path d="M292 160 405 205"></path><path d="M335 142 448 187"></path></g><rect x="170" y="255" width="72" height="89" fill="#151718"></rect><rect x="300" y="252" width="138" height="54" fill="#d7a854" opacity=".55"></rect></svg>